HIERARCHY
ROOT Hips
{
	OFFSET -14.64140 90.27770 -84.91600
	CHANNELS 6 Xposition Yposition Zposition Zrotation Xrotation Yrotation
	JOINT Spine
	{
		OFFSET 0.00000 13.20850 -1.60436
		CHANNELS 3 Zrotation Xrotation Yrotation
		JOINT Spine1
		{
			OFFSET 0.00000 8.61716 0.00000
			CHANNELS 3 Zrotation Xrotation Yrotation
			JOINT Spine2
			{
				OFFSET 0.00000 8.61717 0.00000
				CHANNELS 3 Zrotation Xrotation Yrotation
				JOINT Spine3
				{
					OFFSET 0.00000 8.61717 0.00000
					CHANNELS 3 Zrotation Xrotation Yrotation
					JOINT Neck
					{
						OFFSET 0.00000 11.07920 1.10792
						CHANNELS 3 Zrotation Xrotation Yrotation
						JOINT Neck1
						{
							OFFSET 0.00000 7.08032 0.00000
							CHANNELS 3 Zrotation Xrotation Yrotation
							JOINT Head
							{
								OFFSET 0.00000 7.08031 0.00000
								CHANNELS 3 Zrotation Xrotation Yrotation
								End site
								{
									OFFSET 0.00000 0.00000 0.00000
								}
							}
						}
					}
					JOINT RightShoulder
					{
						OFFSET -0.01000 7.91373 5.19711
						CHANNELS 3 Zrotation Xrotation Yrotation
						JOINT RightArm
						{
							OFFSET -18.41580 0.00000 0.00000
							CHANNELS 3 Zrotation Xrotation Yrotation
							JOINT RightForeArm
							{
								OFFSET -29.11090 0.00000 0.00000
								CHANNELS 3 Zrotation Xrotation Yrotation
								JOINT RightHand
								{
									OFFSET -24.65040 0.00000 0.00000
									CHANNELS 3 Zrotation Xrotation Yrotation
									JOINT RightHandThumb1
									{
										OFFSET -5.35114 -0.85590 3.97906
										CHANNELS 3 Zrotation Xrotation Yrotation
										JOINT RightHandThumb2
										{
											OFFSET -4.52789 0.00000 0.00000
											CHANNELS 3 Zrotation Xrotation Yrotation
											JOINT RightHandThumb3
											{
												OFFSET -2.46976 0.00000 0.00000
												CHANNELS 3 Zrotation Xrotation Yrotation
												End site
												{
													OFFSET 0.00000 0.00000 0.00000
												}
											}
										}
									}
									JOINT RightHandIndex1
									{
										OFFSET -14.26970 0.00000 2.88139
										CHANNELS 3 Zrotation Xrotation Yrotation
										JOINT RightHandIndex2
										{
											OFFSET -5.48836 0.00000 0.00000
											CHANNELS 3 Zrotation Xrotation Yrotation
											JOINT RightHandIndex3
											{
												OFFSET -3.01859 0.00000 0.00000
												CHANNELS 3 Zrotation Xrotation Yrotation
												End site
												{
													OFFSET 0.00000 0.00000 0.00000
												}
											}
										}
									}
									JOINT RightHandMiddle1
									{
										OFFSET -14.26970 0.00000 -0.09147
										CHANNELS 3 Zrotation Xrotation Yrotation
										JOINT RightHandMiddle2
										{
											OFFSET -6.17441 0.00000 0.00000
											CHANNELS 3 Zrotation Xrotation Yrotation
											JOINT RightHandMiddle3
											{
												OFFSET -3.56743 0.00000 0.00000
												CHANNELS 3 Zrotation Xrotation Yrotation
												End site
												{
													OFFSET 0.00000 0.00000 0.00000
												}
											}
										}
									}
									JOINT RightHandRing1
									{
										OFFSET -12.69180 0.00000 -3.06433
										CHANNELS 3 Zrotation Xrotation Yrotation
										JOINT RightHandRing2
										{
											OFFSET -5.62556 0.00000 0.00000
											CHANNELS 3 Zrotation Xrotation Yrotation
											JOINT RightHandRing3
											{
												OFFSET -3.56744 0.00000 0.00000
												CHANNELS 3 Zrotation Xrotation Yrotation
												End site
												{
													OFFSET 0.00000 0.00000 0.00000
												}
											}
										}
									}
									JOINT RightHandPinky1
									{
										OFFSET -11.11390 0.00000 -6.03719
										CHANNELS 3 Zrotation Xrotation Yrotation
										JOINT RightHandPinky2
										{
											OFFSET -4.52789 0.00000 0.00000
											CHANNELS 3 Zrotation Xrotation Yrotation
											JOINT RightHandPinky3
											{
												OFFSET -2.46976 0.00000 0.00000
												CHANNELS 3 Zrotation Xrotation Yrotation
												End site
												{
													OFFSET 0.00000 0.00000 0.00000
												}
											}
										}
									}
								}
							}
						}
					}
					JOINT LeftShoulder
					{
						OFFSET 0.01000 7.91373 5.19711
						CHANNELS 3 Zrotation Xrotation Yrotation
						JOINT LeftArm
						{
							OFFSET 18.41580 0.00000 0.00000
							CHANNELS 3 Zrotation Xrotation Yrotation
							JOINT LeftForeArm
							{
								OFFSET 29.11090 0.00000 0.00000
								CHANNELS 3 Zrotation Xrotation Yrotation
								JOINT LeftHand
								{
									OFFSET 24.65040 0.00000 0.00000
									CHANNELS 3 Zrotation Xrotation Yrotation
									JOINT LeftHandThumb1
									{
										OFFSET 5.35114 -0.85590 3.97906
										CHANNELS 3 Zrotation Xrotation Yrotation
										JOINT LeftHandThumb2
										{
											OFFSET 4.52789 0.00000 0.00000
											CHANNELS 3 Zrotation Xrotation Yrotation
											JOINT LeftHandThumb3
											{
												OFFSET 2.46977 0.00000 0.00000
												CHANNELS 3 Zrotation Xrotation Yrotation
												End site
												{
													OFFSET 0.00000 0.00000 0.00000
												}
											}
										}
									}
									JOINT LeftHandIndex1
									{
										OFFSET 14.26970 0.00000 2.88139
										CHANNELS 3 Zrotation Xrotation Yrotation
										JOINT LeftHandIndex2
										{
											OFFSET 5.48836 0.00000 0.00000
											CHANNELS 3 Zrotation Xrotation Yrotation
											JOINT LeftHandIndex3
											{
												OFFSET 3.01859 0.00000 0.00000
												CHANNELS 3 Zrotation Xrotation Yrotation
												End site
												{
													OFFSET 0.00000 0.00000 0.00000
												}
											}
										}
									}
									JOINT LeftHandMiddle1
									{
										OFFSET 14.26970 0.00000 -0.09147
										CHANNELS 3 Zrotation Xrotation Yrotation
										JOINT LeftHandMiddle2
										{
											OFFSET 6.17440 0.00000 0.00000
											CHANNELS 3 Zrotation Xrotation Yrotation
											JOINT LeftHandMiddle3
											{
												OFFSET 3.56744 0.00000 0.00000
												CHANNELS 3 Zrotation Xrotation Yrotation
												End site
												{
													OFFSET 0.00000 0.00000 0.00000
												}
											}
										}
									}
									JOINT LeftHandRing1
									{
										OFFSET 12.69180 0.00000 -3.06433
										CHANNELS 3 Zrotation Xrotation Yrotation
										JOINT LeftHandRing2
										{
											OFFSET 5.62556 0.00000 0.00000
											CHANNELS 3 Zrotation Xrotation Yrotation
											JOINT LeftHandRing3
											{
												OFFSET 3.56744 0.00000 0.00000
												CHANNELS 3 Zrotation Xrotation Yrotation
												End site
												{
													OFFSET 0.00000 0.00000 0.00000
												}
											}
										}
									}
									JOINT LeftHandPinky1
									{
										OFFSET 11.11390 0.00000 -6.03719
										CHANNELS 3 Zrotation Xrotation Yrotation
										JOINT LeftHandPinky2
										{
											OFFSET 4.52789 0.00000 0.00000
											CHANNELS 3 Zrotation Xrotation Yrotation
											JOINT LeftHandPinky3
											{
												OFFSET 2.46976 0.00000 0.00000
												CHANNELS 3 Zrotation Xrotation Yrotation
												End site
												{
													OFFSET 0.00000 0.00000 0.00000
												}
											}
										}
									}
								}
							}
						}
					}
					JOINT pCube4
					{
						OFFSET 0.00000 10.91090 1.10792
						CHANNELS 3 Zrotation Xrotation Yrotation
						End site
						{
							OFFSET 0.00000 0.00000 0.00000
						}
					}
				}
			}
		}
	}
	JOINT RightUpLeg
	{
		OFFSET -9.98441 0.00000 0.00000
		CHANNELS 3 Zrotation Xrotation Yrotation
		JOINT RightLeg
		{
			OFFSET 0.00000 -42.11790 0.00000
			CHANNELS 3 Zrotation Xrotation Yrotation
			JOINT RightFoot
			{
				OFFSET 0.00000 -45.00020 -0.00001
				CHANNELS 3 Zrotation Xrotation Yrotation
				JOINT RightForeFoot
				{
					OFFSET 0.00000 -3.74820 0.00000
					CHANNELS 3 Zrotation Xrotation Yrotation
					JOINT RightToeBase
					{
						OFFSET 0.00000 0.06325 14.43120
						CHANNELS 3 Zrotation Xrotation Yrotation
						End site
						{
							OFFSET 0.00000 0.00000 0.00000
						}
					}
				}
			}
		}
	}
	JOINT LeftUpLeg
	{
		OFFSET 9.98441 0.00000 0.00000
		CHANNELS 3 Zrotation Xrotation Yrotation
		JOINT LeftLeg
		{
			OFFSET 0.00000 -42.11800 0.00000
			CHANNELS 3 Zrotation Xrotation Yrotation
			JOINT LeftFoot
			{
				OFFSET 0.00000 -45.00070 0.00000
				CHANNELS 3 Zrotation Xrotation Yrotation
				JOINT LeftForeFoot
				{
					OFFSET 0.00000 -3.74824 0.00000
					CHANNELS 3 Zrotation Xrotation Yrotation
					JOINT LeftToeBase
					{
						OFFSET 0.00000 0.06325 14.43110
						CHANNELS 3 Zrotation Xrotation Yrotation
						End site
						{
							OFFSET 0.00000 0.00000 0.00000
						}
					}
				}
			}
		}
	}
}
MOTION
Frames: 4
Frame Time: 0.050000
0.03759293322106869 0.02007510966898117 0.008822598459051617 0.007256688105674699 0.012136730395374122 -0.035130300590678135 -1.3096195506919388 1.325501090645466 -0.9720262853688406 -0.4264386854075737 3.9082347329576397 0.37970885735097926 -0.8053843725837448 -1.8870969642710405 1.9386645807866458 -1.4081591736762806 -0.8786149185107626 -0.3410755134696596 -0.20332332865377375 14.892375088489358 1.0613047199248538 0.5735369293906892 -0.17240992750203135 0.6785347945340505 0.5049879376133432 -15.204891515587255 0.017943750321047336 -4.60261967551735 1.752035710145314 -13.720071282254029 69.03514002757227 -1.3401491134048393 47.29844310442912 9.31719839181696 6.080728614316658 109.82488879264676 19.01929925965922 -0.5182486876672621 -0.9890596812749888 4.538730114903415 -0.09981140574019481 -1.5646744851644587 0.011600289359777263 0.023888280980421273 -56.19084408933796 -0.006687366019489737 -0.023341695960817723 -56.256348963873556 -38.79590063261919 -0.04781368798851569 -0.01530821319756859 -0.013690913025601256 0.0013768584484809858 0.00513826518390309 -0.011880564626622236 0.010208250810753673 0.020099955734017665 -36.69219280973596 0.04024850410317679 0.03604472992403649 0.0177097513297189 0.007685951328459341 0.025789610167581238 -0.005795883147527725 -0.002214401008573553 -0.04811640017885622 -19.734350615664685 -0.01774915692786381 0.03441667256975171 0.0161230017664931 0.006066395007079688 -0.01283008877847472 -0.022125079850702018 0.041129809713765814 -0.009311547443577305 24.005357340714344 0.00894656043824892 -0.04236724135907354 28.853940368074642 0.04839456510722011 -0.02941651353279174 28.88862794469754 -0.018235796519819346 -0.006840782247376109 5.350255086389077 1.3382310564785642 13.48147044064855 -70.71790524511816 17.0453255290464 -25.184347199450713 0.39111584831820806 -3.1025877921072182 -97.97708172864246 -18.792014335439177 8.816488798444492 -8.007402496853999 -0.46017987892253776 0.04873559352005835 -8.089585367651173 0.007541275629435984 0.022182161040081274 44.56697661814647 -0.026193052315543638 -0.04734989219959079 44.579533615017056 12.477380479563257 -0.009108255779580406 -0.0016152055272985605 0.04938459846454327 0.028140537959641554 0.033148949011685434 -0.031044539320703005 0.005793380819383402 0.008508899259571056 11.060508360584409 -0.005651765496941203 0.040475760760109135 -0.03872332153558013 -0.031714487196523776 0.017342115343525328 -0.028390525896197474 -0.00445546736298535 -0.03149097544938168 4.786383677037266 -0.01945950224533472 -0.023863537721609738 -0.043558197298784344 0.005617597879962454 -0.004449233752655021 0.002773546694161999 0.002190445980252377 0.03393511399807114 -5.609273296221123 -0.03466983056201487 -0.00661389175162751 -6.688515026958256 -0.015498304763208761 -0.01918382772667872 -6.716746185496373 -0.029167931440388175 -0.018559190229141733 -0.047175084919560836 -0.04648846784763648 0.047648339342436785 8.085451682138059 3.4476949864775106 -19.18798672690135 0.019575230977635555 10.34616544364148 0.01041101895320893 -5.611489441531774 -15.685503111581381 3.201735737721116 0.023284556319637797 0.029551194864836386 -0.019226739573508945 0.0017144371009003275 4.680186131259611 -0.013744672847190808 12.4185985375735 -8.198872930800208 6.845086179122805 -0.016339218225783873 46.411867227551866 -0.015887879166224986 -4.341943275775837 -14.75062937716606 -3.7853645420943636 -0.049352079509819874 -0.033568311123400904 0.0006699689045988049 -0.029988788343709 -10.719217218537743 0.004815119238024454 
-0.008731584983746583 0.004783489592156807 0.016685534127307573 0.005099511718236011 0.017198657996984366 0.013408803452866672 -1.4512476359425677 1.2390087742485667 -1.0057646705698895 -0.46826717550889857 4.009668198790925 0.34221831911961087 -0.7798254565204623 -1.9352816074435202 1.7946209361512495 -1.400104677880351 -0.9001923561024525 -0.3286441359132449 -0.25557145460777897 15.149895721457007 1.2435859769151651 0.5619609320023794 -0.25304831672169553 1.2404397492663932 0.4103966258328797 -15.404488823825961 0.05947546199876758 -4.5172484812128335 1.7281288436265436 -13.64689569090355 69.53810231392434 -0.31788594395570635 47.18384622666698 8.555123055311752 5.669770717482715 111.04210162561445 18.860854503338548 -0.5737338081402032 -1.0027597825233368 4.567209394231543 -0.12433914620101649 -1.603094649778249 -0.014824273297599277 -0.016968951931596962 -56.21845696397117 -0.03020448444574898 0.00960334815922273 -56.19087187575498 -38.726416568932386 0.038341943943932685 0.023316066340054765 -0.04619661718872065 0.0174776607619958 -0.025700493580983103 0.040731472007216274 0.00845118295515883 0.010809374739003947 -36.70352615243426 0.008676330053769912 -0.028186386074669705 0.0037082599642821765 0.026816828416444664 -0.019450708492489536 -0.03954287067375959 0.0027764455135980332 -0.03318600971183486 -19.762266264062742 -0.02984997777934812 0.040893169337332794 -0.010184849420522704 -0.019356371401540128 -0.03128893925539386 -0.04883219888541397 0.01712406371096859 -0.004076519845544391 24.042214654232147 -0.005283947091684729 -0.02112691991457542 28.9150589107753 -0.008453077354393296 0.04746410230053638 28.88288083267201 0.032812644400481435 0.018758765717533585 5.628078274340393 1.440674739682388 13.424719094919201 -70.44646057889624 17.71287720257064 -27.069018220400988 2.928545695676088 -4.238146223788755 -101.04126059292633 -18.196846344187133 8.92592318527363 -8.073046186212148 -0.48863672099281896 0.04010829666434308 -8.155309928522092 0.03873105637176713 -0.011589051737185989 44.58535692492324 0.02952058700066362 0.018253430021835926 44.60362467492819 12.440263471456694 -0.011935209271964202 0.03612765717141541 0.024966105586425754 -0.024868692381424466 -0.00760109643553446 0.01438592697305582 0.010970021128333356 -0.015690395828038918 11.107133251555899 -0.015299691080387725 -0.028333373845241306 0.00597073200581838 0.016301035541180668 0.029818898491879436 -0.014285442767721812 -0.020103064558716088 -0.013454289266590641 4.769700764263659 -0.022711627361697493 0.01724605931005617 -0.0037812008853560027 -0.02331213317532523 -0.013792824664203047 -0.011496157080849051 0.016165815075189886 -0.041251067205232764 -5.617690108832647 -0.037930253381989784 0.0453934260224603 -6.69858881177739 0.0465366270299188 0.010583308617245267 -6.688711093880896 -0.031791341429682575 0.02910447174185114 -0.035179289118336475 0.012922186833997833 0.048052034575153675 8.031232462443667 3.5315285221456194 -19.212811409711488 0.0355413772478616 10.41795499406125 0.016608008858129353 -5.608205240417355 -15.70097043427079 3.225400462584727 0.03965993352340124 0.04400365534166022 0.02179139415025532 -0.023439826630090903 4.671076241372011 0.01994060372661016 12.44827620056738 -8.24186798894545 6.915109925086681 -0.01655804223588804 46.40003158674374 -0.0008065721499159741 -4.312246234211666 -14.753268951818313 -3.876617046584424 -0.005321961839629693 0.031122716156066117 -0.01807347742569532 -0.007510653094520714 -10.735450390959455 0.02311868814166829 
0.04573579979769098 0.022055847514112166 -0.044846572159829484 0.022322706778640768 -0.009780367999850381 -0.005042669207471039 -1.4276794896383724 1.1933566388570163 -1.049502086515623 -0.42896815691272605 3.9742989847994012 0.29624107497591967 -0.8118972525991811 -1.9188206306677336 1.7605254397007501 -1.3343910938179009 -0.7890977943959615 -0.33658863321919297 -0.3662760832908293 15.28486197545931 1.241958096248995 0.5839396919369187 -0.34160397843611817 1.5089235028472108 0.4043318312649846 -15.593175955929068 0.046497530063826537 -4.428196469436867 1.7165414840505713 -13.725100144553334 70.26405467372892 0.3802888747732026 47.35111083017854 7.503310983155775 5.216888410698447 112.40473079807113 18.57799674380773 -0.5817863572925172 -1.0409494403294954 4.48208040919186 -0.09192790452365845 -1.6080843176636679 0.02876249643088221 -0.039110779761567585 -56.23919412454612 -0.04296009616182693 -0.04311756119015329 -56.22150771111183 -38.73772617777572 0.02985375079013803 0.03486067385867314 0.0018761179294831945 -0.0019662805351291827 0.025687127325001422 -0.0009038072555520557 0.04938704476100234 0.03213465150779092 -36.686431162554456 -0.037983165405537145 0.007430070384831013 -0.009254278674427052 0.0019496376066056222 0.0010254242860608912 -0.01685212179160614 0.043558828484117885 -0.047569060078809636 -19.74524912396665 0.04560405084527205 -0.007882566778829788 -0.03430911767156635 -0.048789741129941784 -0.04583771524578785 0.01246611436784716 -0.0467864518233825 -0.002647223948712897 24.07012437276969 -0.04572315019975707 -0.014327341036855078 28.85758976377287 -0.026254171788660078 0.02215664900773515 28.854447599536993 -0.04234701369743886 0.008687781252431729 5.895282700447405 1.471961665845199 13.476926102679037 -70.2192387256616 18.342656758537657 -28.70713004932102 5.160168630066005 -5.065916231507385 -103.73258612829756 -17.498053716841284 8.833124273052016 -8.095140149519787 -0.4714405377327122 0.07874716328865587 -8.122987427147011 -0.009797841091155475 0.0031487019295054325 44.5904276412791 0.0222096846785613 0.02728113654514618 44.53306761600216 12.4997981613211 0.016957372088644018 0.03996209518634864 -0.011347787411726477 0.0034178157928272655 0.032072373240051286 -0.007141326551532984 -0.003708425446473929 -0.03572522543537983 11.113274701709429 -0.03936993224696529 0.03180558301514731 -0.04172882121201501 0.03650599364066752 0.004781888146386412 0.0011027512489148986 -0.01496432161329934 -0.014736957373037736 4.805976986522767 -0.0031184264956751707 -0.024595419144562095 -0.014645933164648439 0.039270119227913736 0.03744855435611504 0.042766203330629915 0.02276312525750495 0.00042608789751355866 -5.57411159963209 -0.0022357886798951066 -0.008365920962156718 -6.74934335816028 0.011656795037535668 -0.007064136656501442 -6.700855599814684 -0.01472643908068365 0.04507819215221359 0.016753040435352144 -0.03742832147970888 -0.04408767930288264 8.003549174664569 3.5112331487979342 -19.223963607533005 0.024026625633193265 10.379548072891172 0.010901343360345818 -5.598119882943884 -15.655893651436491 3.2196616143700725 -0.02094024972286524 0.023548179473993323 0.01938547859325877 -0.005398835003495242 4.686690464431036 -0.026674269720001937 12.44028984201665 -8.209940749961618 6.901818732393269 -0.017793919880013533 46.36097709719384 -0.021486025162880836 -4.312423787198603 -14.716090951128988 -3.797335531162034 -0.014536611874796131 -0.02323486269484316 -0.004992920094596023 -0.02453035823967733 -10.773148034102402 -0.012351882661057252 
-0.04591166960861485 0.0499266870320355 0.011271843070576361 1.7521894693420066e-05 0.02101501264743172 0.035184902837992096 -1.3768036995848394 1.1854450364259141 -0.9577900382854527 -0.44171578197620376 4.045236090812417 0.32983176572207845 -0.7960243620605277 -1.9277321887488752 1.6427443666000234 -1.3447495572356798 -0.7994796295074023 -0.29218336435302694 -0.4140014471044481 15.575076236965542 1.2690358557196593 0.6190092331994282 -0.35442658174729214 1.6027550331099831 0.37663282402722764 -15.64972934671695 0.11659414241401223 -4.495395239097778 1.6778340455105312 -13.803333089230605 70.72355535056113 1.7983849553099165 47.49792651605075 6.222449845851787 4.700633948310017 113.6863539964256 18.25912586252001 -0.5711677879699619 -1.0073821617242926 4.526482612817045 -0.11617238493087574 -1.6062995988879238 -0.01697294140091488 0.01743684584751087 -56.188540862471655 -0.017347752215806412 -0.010581639411294926 -56.25017165033543 -38.7726779015327 -0.012919180757273097 0.015989242128581934 -0.010202126683239759 0.03976535300007266 0.00032883196202797244 -0.022223679099889607 -0.04780794708174157 -0.003574988742502712 -36.70832608990843 -0.009037249853832651 0.01305481415830256 0.04071162296573124 -0.02567320796976587 0.011362841684896268 -0.0039400630272492364 -0.03807036964623457 0.04518505293748558 -19.73657666252128 -0.00712671211855016 0.035653432220420646 0.03374407145928951 0.026990533726712885 0.02463898423035478 -0.00698039687880563 -0.03212516150797997 -0.009390501918569771 24.05077906448071 0.013757401481309111 -0.029916501494819808 28.84893352467017 0.014929799225533296 0.046280786921761054 28.896886472589046 -0.015095277582961824 0.00800183738832228 6.293848178219498 1.5198874521928154 13.482421428940604 -70.07829282564246 18.96705278721804 -30.304934006191456 6.493534268653626 -5.656428355390994 -105.69265445414433 -16.80121537828308 8.509101018542065 -7.855592554999831 -0.4918085247490204 0.06981755154822981 -8.1629671187944 -0.01874827395741472 0.01123620513482306 44.5974461277178 -0.0231403531061357 0.005850036510528115 44.580165427652716 12.502536873116423 -0.010174020300118708 0.011063194287272636 -0.02065192134510687 0.011682270232292775 0.0027682623364463903 -0.006144432406043793 -0.03753806123628082 -0.038709724864722364 11.077575299782042 0.0071725723476309825 0.0061242471976771995 -0.026438856943815283 0.04264500538023227 0.02747377003740642 -0.004659614464749951 -0.01725995856595578 -0.0002873526147146743 4.738799131457916 -0.024668925748024872 0.00950148575723148 0.033720726830606805 0.04438875091577793 0.0462862598165349 -0.00261087820541149 -0.04684081418471383 0.03212976060343635 -5.632372405916815 -0.016590454150445865 -0.033932040174433194 -6.723632424784793 0.03946989058934577 0.04475073287509704 -6.735660845199035 0.021258590501880937 0.017240389002436764 -0.036062305449159476 0.016469278532857116 0.024049347158623113 8.018263963265456 3.4756269406584415 -19.26089370365607 0.03211503312521346 10.397967456381801 0.02202693989627527 -5.576664143244507 -15.646057443466974 3.1842343303566296 -0.020372565454195694 -0.0214373270059445 -0.031680114655113945 0.017872565397950145 4.668600105781469 0.01889312346698878 12.449467146158746 -8.217257293244835 6.8538286101242445 0.02695171364867368 46.375916339991655 0.04416520993367813 -4.297645145595964 -14.751932883595694 -3.8051714234151057 0.03713764561108341 0.021745348969934155 0.030711031672921395 0.030137604806354475 -10.761109928237923 -0.023521208816790637 
